<?xml version="1.0" encoding="utf-8"?><svg width="100%" height="100%" version="1.1" viewBox="-19843 -24963 35718 35206" style="" xmlns:xlink="http://www.w3.org/1999/xlink" xmlns="http://www.w3.org/2000/svg"><defs /><g id="layer1"><path d="M6810 -13744 C5820 -13744 5010 -12895.3 5010 -11858 C5010 -10820.7 5820 -9972 6810 -9972 C7800 -9972 8610 -10820.7 8610 -11858 C8610 -12895.3 7800 -13744 6810 -13744 Z M6720 -14848 C8304 -14848 9600 -13523.2 9600 -11904 C9600 -10854.0136410589 9055.03159424507 -9927.82257428926 8239.95381769595 -9406.39381320655 L8239.95381851994 -9406.39381320655 L8740.09636677639 -2047.15346029023 L11135.9999861075 -2816.00012239964 L11263.9995290905 -896.000024752717 L8874.36513986518 -71.4843705551823 L8893.01937902589 202.999434238019 L11519.9997759447 -639.999880634964 L11647.9993189277 1280.00021701195 L9027.65853471013 2184.11843930621 L9027.65853471013 2184.11843930621 L9088 3072 L7168 3840 L6159.66122067272 -9016.31943642279 L6159.66122128868 -9016.31943642279 C4841.45297500333 -9284.78026643646 3840 -10480.644857045 3840 -11904 C3840 -13523.2 5136 -14848 6720 -14848 Z M14208 -19584 L-1792 -14976 L640 9856 L15872 2816 L14208 -19584 Z " fill-rule="evenodd" opacity="1" stroke="#000000" stroke-opacity="1" stroke-width="1" stroke-linecap="butt" stroke-linejoin="miter" stroke-dasharray="none" fill="#FFFFFF" fill-opacity="1" /><path d="M-19840 -19968 L-2944 -14720 L-512 10240 L-16384 4224 Z " opacity="1" stroke="#000000" stroke-opacity="1" stroke-width="1" stroke-linecap="butt" stroke-linejoin="miter" stroke-dasharray="none" fill="#FFFFFF" fill-opacity="1" /><path d="M-18816 -21120 L-1024 -24960 L13312 -20352 L-2432 -15872 Z " opacity="1" stroke="#000000" stroke-opacity="1" stroke-width="1" stroke-linecap="butt" stroke-linejoin="miter" stroke-dasharray="none" fill="#FFFFFF" fill-opacity="1" /></g></svg>